# xmcd
#
# Track frame offsets:
#	150
#	14804
#	28408
#	42014
#	56668
#	69143
#	82518
#	94920
#	107247
#	124749
#	137527
#	150832
#	163016
#	176248
#	189030
#	202486
#	216092
#	230149
#	242780
#	255182
#	267887
#	280971
#	294809
#	307516
#
# Disc length: 4244 seconds
#
# Revision: 2
# Processed by: cddbd v1.5.1PL0 Copyright (c) Steve Scherf et al.
# Submitted via: audiograbber 1.83.01
#
DISCID=47109218
DTITLE=Eddie (Cleanhead) Vinson - 1945-1947
DYEAR=2001
DGENRE=R&B
TTITLE0=Mr. Cleanhead Steps Out
TTITLE1=It's a Groovy Affair
TTITLE2=I've Been So Good
TTITLE3=Juce Head Baby
TTITLE4=Br'er Rabbit
TTITLE5=Boogie Woogie Holiday
TTITLE6=Too Many Women Blues
TTITLE7=I Like To Be Home Blues
TTITLE8=Three O'Clock In The Morning Blues
TTITLE9=Cherry Red Blues
TTITLE10=SomeBody's Gotta Go
TTITLE11=Too Many Women Blues
TTITLE12=Just A Dream
TTITLE13=Cleanhaed Blues
TTITLE14=When A Woman Loves
TTITLE15=Kidny Stew Blues
TTITLE16=King For A Day Blues
TTITLE17=Old Maid Boogie
TTITLE18=Gonna Send You Back Where I Got You From
TTITLE19=Lazy Gal
TTITLE20=Bonus Pay
TTITLE21=Luxury Tax Blues
TTITLE22=Railroad Porter's Blues
TTITLE23=Gonna Send You Back Where I Got You From
EXTD=Blues and Rhythm Classics #5017 (France]\nThe Chronological Ediie Vinson 194
EXTD=5-1947\nall tracks originally on Mercury
EXTT0=
EXTT1=
EXTT2=
EXTT3=
EXTT4=
EXTT5=
EXTT6=
EXTT7=
EXTT8=
EXTT9=
EXTT10=
EXTT11=
EXTT12=
EXTT13=
EXTT14=
EXTT15=
EXTT16=
EXTT17=
EXTT18=
EXTT19=
EXTT20=
EXTT21=
EXTT22=
EXTT23=
PLAYORDER=
